# xmcd
#
# Track frame offsets: 
#        150
#        112102
#        137457
#        169606
#        203782
#        317067
#
# Disc length: 4747 seconds
#
# Revision: 0
# Processed by: cddbd v1.5.2PL0 Copyright (c) Steve Scherf et al.
# Submitted via: ExactAudioCopy v0.99pb5
#
DISCID=4d128906
DTITLE=Led Zeppelin  - Lost Mixes EP Vol 06
DYEAR=1900
DGENRE=
TTITLE0=Jennings Farm Blues 1-11
TTITLE1=Thats The Way
TTITLE2=Feels So Bad (Fixin To Die
TTITLE3=Since I've Been Lovin You
TTITLE4=No Qaurter 1-3
TTITLE5=Bonus No Quarter No Vocals Better Mix
EXTD=
EXTT0=
EXTT1=
EXTT2=
EXTT3=
EXTT4=
EXTT5=
PLAYORDER=
